/* XPM */
static char *b426bf755ae947c893418ecb424206b6snzKW2iu2bLbr9Zi[] = {
/* columns rows colors chars-per-pixel */
"26 26 146 2 ",
"   c #211F30",
".  c #2F262D",
"X  c #33272B",
"o  c #36292B",
"O  c #3D2D29",
"+  c #2C2132",
"@  c #3D2834",
"#  c #502F22",
"$  c #483026",
"%  c #4B3426",
"&  c #443028",
"*  c #553422",
"=  c #523724",
"-  c #583622",
";  c #5B3921",
":  c #593B23",
">  c #5D3B21",
",  c #422637",
"<  c #4C2C37",
"1  c #4D283A",
"2  c #4D3734",
"3  c #4F3833",
"4  c #483B3E",
"5  c #543E32",
"6  c #5B3E31",
"7  c #603E21",
"8  c #632C3F",
"9  c #65333B",
"0  c #62313C",
"q  c #70353E",
"w  c #763A3D",
"e  c #5E493E",
"r  c #634436",
"t  c #64493C",
"y  c #795038",
"u  c #232F43",
"i  c #372840",
"p  c #243E56",
"a  c #4E314F",
"s  c #533D40",
"d  c #5B384C",
"f  c #643A5F",
"g  c #324553",
"h  c #3F4F57",
"j  c #32485B",
"k  c #264E69",
"l  c #275E7C",
"z  c #3A5D70",
"x  c #2E627A",
"c  c #5B4945",
"v  c #56414B",
"b  c #5E424C",
"n  c #52515E",
"m  c #694245",
"M  c #654E43",
"N  c #7B4745",
"B  c #67534A",
"V  c #785047",
"C  c #7B5A45",
"Z  c #664151",
"A  c #784E51",
"S  c #5D5360",
"D  c #7A436F",
"F  c #685563",
"G  c #7E5A68",
"H  c #796D6C",
"J  c #6B6A75",
"K  c #805336",
"L  c #A4683B",
"P  c #BA753D",
"I  c #974045",
"U  c #974247",
"Y  c #954B4F",
"T  c #984C4E",
"R  c #865448",
"E  c #924A5B",
"W  c #8F5E53",
"Q  c #9D5753",
"!  c #A2524C",
"~  c #A75A4F",
"^  c #9A624F",
"/  c #957459",
"(  c #A77349",
")  c #B26C57",
"_  c #B96E54",
"`  c #AD7056",
"'  c #AA7D56",
"]  c #A3775A",
"[  c #B27B5C",
"{  c #82476E",
"}  c #895C6A",
"|  c #885A6E",
" . c #815770",
".. c #877063",
"X. c #9A7D62",
"o. c #97737F",
"O. c #B3796C",
"+. c #B07878",
"@. c #C07E5D",
"#. c #9E876C",
"$. c #AC8864",
"%. c #A39075",
"&. c #D38B4D",
"*. c #E68D41",
"=. c #E79248",
"-. c #EA9D55",
";. c #C88E65",
":. c #C4996D",
">. c #CF9E6E",
",. c #D8A068",
"<. c #EFB270",
"1. c #F1B777",
"2. c #F2BC7E",
"3. c #2A7DA1",
"4. c #4A7585",
"5. c #A7568E",
"6. c #AD7784",
"7. c #B37B83",
"8. c #B07290",
"9. c #C26D9F",
"0. c #C77BA0",
"q. c #DA7BAF",
"w. c #EA71BD",
"e. c #3997B9",
"r. c #409CBC",
"t. c #539BB1",
"y. c #2FACDA",
"u. c #49B0D1",
"i. c #56BAD6",
"p. c #43BBE2",
"a. c #64C4DC",
"s. c #58CAE9",
"d. c #6CD9F1",
"f. c #8F858E",
"g. c #C880A0",
"h. c #DD85AF",
"j. c #E08EB0",
"k. c #F38EBF",
"l. c #F3C084",
"z. c #F4C489",
"x. c #F6CC95",
"c. c #F8D3A0",
"v. c #FBDFB1",
"b. c #F89CC0",
"n. c #D6BBC1",
"m. c white",
/* pixels */
"7 7 7 7 7 7 7 7 7 7 7 7 7 7 7 7 7 7 7 7 7 7 7 7 7 7 ",
"7 7 7 7 7 7 7 7 7 : = 7 7 = 7 7 = 7 7 = : 7 7 7 7 7 ",
"7 7 7 7 7 7 7 7 7 h 4.= & | & & 4.o = | b r 7 7 7 7 ",
"7 7 7 7 7 7 7 7 o r.a.h { j.| x i.t.d h.0.o 7 7 7 7 ",
"7 7 7 7 7 7 o     p.d.z 5.b.8.3.s.d.f k.b.    o 7 7 ",
"7 7 7 7 7 % 8.b.f e.i.j D h. .l u.t.a q.0.k d.t.# 7 ",
"7 7 7 7 7 : b 9.w.u p     a     p     a i y.r.h ; 7 ",
"7 7 7 7 7 7 = d f q A %.X.@ q N R / 4 #.%.k g = 7 7 ",
"7 7 7 7 7 7 o L   I Q >.>.< I ~ _ >.c >.>.  7 7 7 7 ",
"7 7 7 7 - $ $.-.  ~ E 6.O.< I ~ _ @.s +.6.  7 7 7 7 ",
"7 > > > # 3 :.-.  ~ 6.m.6.< I ~ _ ;., n.m.  7 7 7 7 ",
"7 > > : 7 B 2.-.  ~ E 6.Z < I ~ _ _ + | 6.  7 7 7 7 ",
"7 7 7 7 7 B 2.-.  ~ Y m f.< I ~ _ _ n F W   7 7 7 7 ",
"7 7 7 7 7 M 1.-.  ~ Q c 8 1 8 q w w 6 1 / + 7 7 7 7 ",
"7 7 7 7 7 2 ,.-.  ! Q c G o.S S J J 7.v /   7 7 7 7 ",
"7 7 7 7 o y ( =.  I T ] H J S S J J J ..'   & 7 7 7 ",
"7 7 7 7   &.C P L 6 U ) Q R R R R R R ` V L X 7 7 7 ",
"7 7 7 7   -.2.B + L                   + L *.X 7 7 7 ",
"7 7 7 7 7 6 L ' $.<.-.-.-.-.-.-.-.-.( y L X ; 7 7 7 ",
"7 7 7 7 7 : $ . L 2.2.2.l.2.z.z.x.c.$.o % - * * 7 7 ",
"7 7 7 7 7 7 7 o *.2.2.2.2.2.l.l.c.v.$.% 7 7 > ; 7 7 ",
"7 7 7 7 7 7 7 o *.2.2.2.B 2.2.2.2.2.$.% 7 7 7 7 7 7 ",
"7 7 7 7 7 7 7 7 o P -.2.B o o K ' 2.<.t % 7 7 7 7 7 ",
"7 7 7 7 7 7 7 7 > 6 ( $.t 7 7 o 2 2.2.B % 7 7 7 7 7 ",
"7 7 7 7 7 7 7 7 7 : % % : 7 7 = r -.1.B % : 7 7 7 7 ",
"7 7 7 7 7 7 7 7 7 7 7 7 7 7 7 7 % r M r : : 7 7 7 7 "
};
