/* XPM */
static char *_0b636cccdb0482a990a16d72dad1e1fSOTvx59ZkGWpd4G7[] = {
/* columns rows colors chars-per-pixel */
"32 32 11 1 ",
"  c #96C796",
". c #93C596",
"X c #97C897",
"o c #9FCC98",
"O c #211F30",
"+ c #B96E54",
"@ c #CF9E6E",
"# c #E4C997",
"$ c #843346",
"% c #A14744",
"& c #95C696",
/* pixels */
" ..............................X",
"o ............................Xo",
"oo ..........................Xoo",
"ooo ........................Xooo",
"oooo ......................Xoooo",
"ooooo ....................Xooooo",
"oooooo ..................Xoooooo",
"ooooooo ................Xooooooo",
"oooooooOOOOOOOOOOOOOOOOOOooooooo",
"ooooooO+@@@@@@@@@@@@@#@##Ooooooo",
"ooooooO++++++++++++++++++Ooooooo",
"ooooooOO$OO$$$$$$$$$$OO$OOoooooo",
"ooooooO++O%$%$%$%$%$%%O++Ooooooo",
"ooooooO+@$+%+%+%+%+%+%$+@Ooooooo",
"ooooooO+@$+%+++%+%+%+%$+@Ooooooo",
"ooooooO+@$+%+%+%+%+++%$+@Ooooooo",
"ooooooO+@$+%+%+%+%+%+%$+#Ooooooo",
"ooooooO+@$+%+%+%+%+%+%$+#Ooooooo",
"ooooooO+@$+%+%+%+%+%+%$+@Ooooooo",
"ooooooO+@$+%+%+%+++%+%$+#Ooooooo",
"ooooooO+@$+%+%+%+%+%+%$+@Ooooooo",
"ooooooO+@$+++%+%+%+%+%$+@Ooooooo",
"ooooooO+@$+%+%+%+%+%+%$+@Ooooooo",
"ooooooO+@O+%+%+%+%+%+%O+@Ooooooo",
"ooooooOO$OO$$$$$$$$$$OO$OOoooooo",
"ooooooO+@@@@@@@@@@@@@@@@@Ooooooo",
"ooooo&O++++++++++++++++++O ooooo",
"oooo&..OOOOOOOOOOOOOOOOOO.. oooo",
"ooo&........................ ooo",
"oo&.......................... oo",
"o&............................ o",
"&.............................. "
};
