/* XPM */
static char *_441d4be8bb742fd8232eaaee4f22c60M7Nli2yJLdiQOOAB[] = {
/* columns rows colors chars-per-pixel */
"32 32 14 1 ",
"  c #96C796",
". c #93C596",
"X c #97C897",
"o c #9FCC98",
"O c #211F30",
"+ c #E44A4A",
"@ c #72A11D",
"# c #CC3048",
"$ c #9C1B4D",
"% c #28860F",
"& c #076029",
"* c white",
"= c #A4CC42",
"- c #95C696",
/* pixels */
" ..............................X",
"o ............................Xo",
"oo ..........................Xoo",
"ooo ........................Xooo",
"oooo ......................Xoooo",
"ooooo ....................Xooooo",
"oooooOOO...OOOOOO...OOOO.Xoooooo",
"ooooO+++O.O@@@@@@O.O@@@@Oooooooo",
"ooooO###$OOOOOOOOOOOOOOOOooooooo",
"oooooOO$O$#+++#+####+#+++Ooooooo",
"ooooO#$OOOO$$$#$####$#$$OOoooooo",
"ooooO+#O$$###############Ooooooo",
"ooooO+#OOOOOOOOOOOOOOOOOOOoooooo",
"ooooO+OO%%%%&****&%&****&%Oooooo",
"oooooOO%@@@@%&&&&%@%&&&&%@Oooooo",
"ooooooO@@@@@@@@@@@@@@@@@@@Oooooo",
"ooooooO@@@@@&&&&&&&&&&&&@@Oooooo",
"ooooooO@@@@%@@@@@@@@@@@@%@Oooooo",
"ooooooOOO%@@@@@@%%%%%@@@@@Oooooo",
"oooooO%@@O%@@@@@@@@@@@@@%O%Ooooo",
"oooooO%@@@@@@@@@@@@@@@%%O%%Ooooo",
"oooooO%@@@@@@@@@@@@@@@OO%%%Ooooo",
"ooooooO%%@@@@@=======@@O%%Oooooo",
"oooooooOOOOO@=========@OOOoooooo",
"ooooooo-.O%@@=========@O ooooooo",
"oooooo-..O%@@=========@O. oooooo",
"ooooo-...O%@@@@O@=====@O.. ooooo",
"oooo-.....O%%@@OOOO@=@@%O.. oooo",
"ooo-.......O%@@O...OO@@@O... ooo",
"oo-.........OOO....O%@@@O.... oo",
"o-..................O%@@O..... o",
"-....................OOO....... "
};
