/* XPM */
static char *_41b6ac4983a463bb997b9ac99661a53FZIzOeYcJOldCBuX[] = {
/* columns rows colors chars-per-pixel */
"64 64 157 2 ",
"   c None",
".  c #0E120C",
"X  c #11140F",
"o  c #131611",
"O  c #161915",
"+  c #191B17",
"@  c #1B1D1A",
"#  c #211E1C",
"$  c #1E221D",
"%  c #21231F",
"&  c #28221F",
"*  c #1E2222",
"=  c #1F272D",
"-  c #1F2931",
";  c #232522",
":  c #2A2623",
">  c #252A24",
",  c #2B2A26",
"<  c #232629",
"1  c #282728",
"2  c #25292C",
"3  c #2B2E29",
"4  c #312A26",
"5  c #342D2A",
"6  c #2D332B",
"7  c #2F382E",
"8  c #33332D",
"9  c #38312D",
"0  c #31392F",
"q  c #232D34",
"w  c #252F39",
"e  c #253135",
"r  c #2C3435",
"t  c #2E3831",
"y  c #26323A",
"u  c #28363B",
"i  c #323532",
"p  c #393732",
"a  c #343C32",
"s  c #393B36",
"d  c #323E3D",
"f  c #3B3D39",
"g  c #374135",
"h  c #394336",
"j  c #35413F",
"k  c #3C433B",
"l  c #3E4A3B",
"z  c #41423E",
"x  c #424D3F",
"c  c #263543",
"v  c #273846",
"b  c #273B4C",
"n  c #293C4D",
"m  c #293F52",
"M  c #2C404D",
"N  c #314246",
"B  c #3B4B44",
"V  c #32414A",
"C  c #2A4256",
"Z  c #2B455B",
"A  c #2D485F",
"S  c #344850",
"D  c #2D4760",
"F  c #2E4A64",
"G  c #2F4E69",
"H  c #304C64",
"J  c #304F6A",
"K  c #2F516C",
"L  c #335067",
"P  c #31516D",
"I  c #325573",
"U  c #335877",
"Y  c #345B7B",
"T  c #385F7E",
"R  c #38607F",
"E  c #434442",
"W  c #464A45",
"Q  c #494A47",
"!  c #4C4D4B",
"~  c #455242",
"^  c #495546",
"/  c #4D514D",
"(  c #4C5849",
")  c #51554F",
"_  c #434F58",
"`  c #485051",
"'  c #545453",
"]  c #545A53",
"[  c #595A56",
"{  c #53575A",
"}  c #5B5C5A",
"|  c #5E605E",
" . c #61625F",
".. c #445C6E",
"X. c #4E6575",
"o. c #636463",
"O. c #6B6766",
"+. c #666965",
"@. c #6B6C6B",
"#. c #6F706F",
"$. c #70706F",
"%. c #737473",
"&. c #787777",
"*. c #7B7C7B",
"=. c #80807F",
"-. c #355F81",
";. c #366184",
":. c #396385",
">. c #376589",
",. c #39668A",
"<. c #3B698E",
"1. c #3B6D94",
"2. c #3B6F98",
"3. c #3F7096",
"4. c #3D729B",
"5. c #3E76A2",
"6. c #3F79A5",
"7. c #3F7BA9",
"8. c #406F93",
"9. c #407096",
"0. c #41759C",
"q. c #45789F",
"w. c #667A8A",
"e. c #4177A0",
"r. c #437AA4",
"t. c #497FA7",
"y. c #437EAA",
"u. c #497FA8",
"i. c #4681AD",
"p. c #4981AC",
"a. c #4683B1",
"s. c #4986B2",
"d. c #4B89B5",
"f. c #4E8DBA",
"g. c #518FBB",
"h. c #5392BE",
"j. c #5495C2",
"k. c #5997C3",
"l. c #5799C6",
"z. c #5999C4",
"x. c #579AC8",
"c. c #599CC9",
"v. c #5DA0CC",
"b. c #61A4CF",
"n. c #838383",
"m. c #878887",
"M. c gray55",
"N. c #8F908F",
"B. c #939393",
"V. c gray61",
"C. c gray64",
"Z. c #ACACAC",
"A. c #B4B4B4",
"S. c gray",
"D. c gray78",
"F. c #CBCBCB",
"G. c #D5D5D5",
/* pixels */
"                                                          I I G G I I G                                                         ",
"                                                  D G U :.<.>.U -.1.,.:.-.P F F F                                               ",
"                                                -.Y T >.2.y.e.:.0.y.y.e.1.;.Y Y -.T                                             ",
"                                        D G T 1.5.5.6.7.a.s.r.<.e.p.s.s.i.7.y.5.4.,.I H                                         ",
"                                      J J -.e.y.s.s.a.a.u.p.r.<.<.0.e.y.a.a.s.s.y.y.1.U J J                                     ",
"                                G U ;.-.-.1.y.u.r.e.0.0.8.,.,.Y I -.,.>.1.4.4.5.y.a.e.8.<.1.-.I                                 ",
"                          D I U -.,.0.r.2.1.2.2.1.<.:.:.U U Y U J I Y Y ;.;.;.<.1.0.1.0.u.u.2.-.;.-.F                           ",
"                        D J -.1.5.y.u.u.e.1.-.U -.-.Y Y U U U I G P I I U U -.-.T Y -.2.u.p.y.y.4.1.I G                         ",
"                      D K ;.4.y.y.y.u.2.<.-.I P P I I P K G D Z C Z D G K I U I P P U ,.1.0.y.u.a.7.1.U P                       ",
"                    F P >.5.y.a.y.0.<.-.U I J G J G Z C b v e < = < y b m m D G J J P I -.-.1.e.y.s.y.4.-.U                     ",
"                  D T 1.6.i.y.e.<.-.-.I F m c c u y 2 < < < ; & ; : ; < ; < q u c c v Z P U -.:.1.e.i.y.5.,.U                   ",
"                D U 1.y.y.u.4.,.-.I J A v q 1 1 , 2 ; & : 1 , 4 4 4 : : : & : 1 1 < < q n F I U T 1.e.i.a.5.,.I                 ",
"              D F T e.y.r.1.:.Y I D n y 3 : : 4 5 4 : 4 5 5 5 8 5 9 9 5 5 : : 5 4 4 4 & 2 c m H U ;.,.0.y.r.1.U P               ",
"            P I I T 0.4.1.-.Y I m u 1 : : 4 9 9 9 4 : 1 > > & 6 : : : 1 3 : 4 9 9 9 9 4 : & 2 v A I Y :.1.1.:.U I I             ",
"          G T 1.0.1.:.;.>.Y G b e : 4 , : : 4 : , , > : 3 6 0 l 3 , 6 8 8 : , , : : 4 : : 4 5 1 y Z I T ;.-.-.1.4.1.-.          ",
"          I >.y.p.q.:.U I G v 2 : 4 4 : % # & 0 z h 0 1 > $ > r ; # $ > 6 0 s k f p ; + # 4 9 4 : q C P U Y ,.y.y.4.,.I         ",
"          ;.2.y.a.0.:.U H v 2 : 5 4 : % % 3 f ] ] E 6 > $ + + * @ O O @ > > a / [ / i ; # ; , 5 4 : q C J Y <.y.a.y.2.U         ",
"        F :.0.y.y.1.Y P m < : 5 5 : $ 3 s ! o.$.' i $ $ $ $ $ $ + + @ + O o > k  .#.} W i ; # : 5 5 % y Z I -.9.p.s.4.T         ",
"        H Y 1.r.t.:.U A w @ , 4 : @ , f } &.@.} t @ $ $ $ $ $ $ $ $ % > $ $ o ; B +.#.@.[ 0 > # : 5 % * v I -.>.p.d.0.T G       ",
"    p.4.Y U ,.q.r.-.I Z q # : 4 : > i ! o.+.! i $ $ $ > > $ $ $ $ $ $ ; * * + + < p ' O.} z , % & : : * c G U <.a.s.1.Y -.8.s.f.",
"  <.9.e.9.U :.q.r.:.U Z q : 5 : > 6 s z Q f : < @ @ * ; % > ; $ $ $ $ > * * $ $ + ; 8 E ! k i ; # : 4 < c J -.<.a.y.>.:.0.0.8.<.",
"  P ;.4.0.Y R 9.0.-.U Z q 4 9 , > 7 7 6 ; % , r ; @ $ * ; ; > > $ $ $ > ; $ $ $ , i ; $ 3 t a 2 < 4 9 < v H U ,.r.9.Y <.0.1.I H ",
"  P U ;.;.Y T ,.<.U I C w : 4 1 3 a > $ O < ! } s $ @ > > ; ; > $ $ % > > $ @ > W o.s @ + 3 a 7 , : 5 : c F J U ,.:.U :.:.-.I D ",
"    K I R :.:.,.:.>.-.F w : 4 : 6 a 1 $ @ s | O.z $ $ + $ ; ; > * $ $ $ * @ @ 3 ^ @./ 2 $ > l s 4 : 9 1 c F I U Y ;.>.,.:.-.-.  ",
"      P U T T Y U Y U Z q : : : 6 l t $ $ i ' E E ! E O o O @ $ $ $ + . o > E ` E ' E : + < l g , : 4 # c G P P P U T -.-.U I   ",
"      P K I P P G P P m q # : ; 7 l a % @ 2 i 3 ' &.%.f 3 $ $ $ o $ @ + 3 ! &.#.f i , % @ ; h s 3 ; 1 * c F G G J P U U U I     ",
"        D P I I K G G Z q @ : ; 7 k 6 % 3 r ; : } M.V.n.@.' Q Q 7 6 k } #.m.N.&.E % < t 6 ; l h 3 ; ; < c D G G I U U J         ",
"        G U -.T U P P Z q # : ; 6 0 > > ' @.E i ' n.C.A.A.Z.Z.Z.o.@.N.A.A.C.M.@.z i  .#.! ; l h 3 ; ; * c G G P Y :.:.U         ",
"        J ;.,.<.,.U U C q : : : 6 g > % Q &.&.' o.*.B.C.S.F.G.F.%.n.A.D.Z.B.n.%.+.&.N.%.s % x h 3 < : ; v G I U :.3.0.,.        ",
"        J ,.1.4.0.-.U A q : 5 , 6 l 6 $ 5 ` *.*.=.n.m.B.C.S.G.D.$.=.Z.A.V.M.n.n.n.M.&.W $ $ g s , : 5 < v G I -.,.e.y.8.        ",
"        J 1.4.5.u.,.U A w : 9 , 7 x h > @ 3 ' =.M.M.M.m.B.C.A.A.O.$.M.V.N.m.M.M.M.%.z % @ > a 0 , 4 9 : v G P -.1.e.i.1.        ",
"        G ,.5.y.y.:.U C q : 5 4 8 ^ ) a $ + , } =.N.B.M.M.M.V.C.| +.=.m.M.N.M.N.n.) ; O < k x 0 , 5 5 < v F P >.4.y.r.,.        ",
"        F >.4.7.5.T P C q ; 9 , 7 ( +.W < o 1 ' =.V.V.C.V.B.V.C.| O.=.B.C.C.C.B.*.E @ O i ' ! a < : 5 < c D K >.5.7.5.-.        ",
"        G ;.2.5.1.U I C q & 4 : 0 ^ | ' 5 O i ' &.N.V.C.Z.A.A.Z.o.$.V.A.A.Z.C.m.@.! ; $ h } W 7 ; ; 4 ; c D P <.2.6.5.-.        ",
"        G ;.4.4.1.U P Z q ; 5 1 0 ~ W ! 3 ; E | O.O.O.O.%.=.C.C.o.%.M.B.*.%.@.o.o.} 0 % s / h 6 : : 4 ; c F K >.2.6.5.-.        ",
"        F -.4.6.2.U I C q : 5 4 a l 7 a 3 6 } %.} z 5 & 4 z %.M.{ | o.Q , < i ! @.@.W 6 3 s s 7 3 : 4 < v G I ;.2.5.4.-.        ",
"        G T 5.i.4.U U A q : 4 : 8 g > > > k @.M.=.[ 4 X o 4 ' =.! W f ; o o s $.M.=.| s % : h g 6 ; , ; v P U -.4.7.5.-.        ",
"        G -.5.a.r.U U D q , 9 , 6 g 3 $ ; f @.n.M.=.O.z x [ $.=.' [ } ' Q } n.C.V.*.] a # ; l h 3 : 9 : v I U -.2.7.4.Y         ",
"        F -.e.s.q.U U D q , 9 , e N > * & 8 ' %.n.n.*.O.O.=.V.Z.} X.w.&.#.*.N.B.n.@.x 3 % ; N j 8 : 9 < v J U -.2.7.5.-.        ",
"        D ;.5.r.<.I I A q & 9 , e N 6 > & 4 p !  .%.%.%.&.=.B.=.! ..w.n.&.%.&.$.} W 3 ; > ; d d 5 : 5 ; c F I Y 1.6.4.-.        ",
"        G ;.2.1.;.P P Z q : 9 4 0 l 7 > % % % 3 l ` [  .&.p.&.x 9 z #.n.@.] ' ! s 1 $ & > > 0 0 4 4 9 < c G P I ;.2.4.-.        ",
"        F :.1.>.U P I Z w : 9 , 8 g 3 > > > > % * ; a ' $.=.O.z 8 g +.n.@.h 8 > @ * ; > > $ 6 7 , , 9 < c D P I Y >.2.Y         ",
"        F Y T U P G G C w : 4 ; > 0 & % > > > > + O 6 ) $.&.%.O.V / O.&.@.k $ o $ 3 > > % $ 3 6 3 : 4 1 c D P J P Y -.P F       ",
"        K Y -.Y U P U J c & 4 & > 6 $ > > > 3 3 $ $ t [ $.$.&.&._ { @.$.+./ 6 $ ; 3 6 > > $ 7 7 4 : , 2 C I U U -.-.-.U P G     ",
"        ;.1.4.3.4.,.0.;.M & , % > g > > % > 7 6 > 3 g W +.@.%.*.' ' +.@.' ! i > > > 6 > * * 7 g 6 & : 2 H 9.3.0.0.1.9.1.1.U F   ",
"        1.p.s.s.i.t.p.<.C & & % > h > * $ $ > > > ; $ $ ! +.%.%.! ' @.@.a ; $ > > > > ; * % g g 3 & & 2 L r.y.p.t.t.u.p.r.-.G   ",
"  <.<.8.T ;.:.:.,.:.:.K v % & % > g > $ $ * > > 6 ; $ ; ' $.=.*.! ' %.@.0 ; % > 6 > > > $ $ 6 6 3 # & ; n U -.:.:.;.;.;.T U I   ",
"  e.r.u.4.4.9.9.4.4.4.R M : 6 % > g > $ $ $ $ $ ; > $ > } } | @.z z ] | k ; ; > * > $ $ $ $ 6 6 1 : 3 < H 1.2.8.0.0.0.9.0.0.e.  ",
"  y.p.p.i.i.i.i.a.a.s.1.Z : 9 , 7 h > $ $ $ $ * * $ $ 3 B h g ( p , i k k ; > % $ $ $ $ $ $ 0 0 3 , 8 3 P t.y.a.a.a.a.i.p.p.y.  ",
"d.e.1.<.0.e.y.i.y.r.y.>.C , 9 , 0 l > % $ > 3 $ $ > > $ $ $ 3 l 0 ; % % > ; $ % > 3 > $ @ + g h 8 , i 2 H 1.e.y.y.r.r.e.4.1.1.i.",
"j.r.-.U ,.2.4.4.1.,.>.I v : 9 , 0 l 3 % 7 l g 3 > > > $ $ $ g l p 3 > $ * > > % 6 h g 3 $ $ h h 0 , 9 2 C T :.1.1.1.1.1.>.Y ,.a.",
"x.r.;.I Y -.;.;.T U I D y # 4 : 3 0 0 0 g g 6 $ $ $ $ 6 $ $ 6 l 0 > $ @ ; ; $ $ > 6 g g g 7 h a 3 : , ; v I I U T -.Y -.-.I <.s.",
"c.s.3.>.>.>.>.:.;.>.;.P c # : & > 0 g h g 6 $ $ $ $ * 6 6 6 g l 0 8 6 6 6 % $ $ $ > 6 g k a h 0 : & : < m Y :.:.>.:.:.,.,.,.0.j.",
"j.g.i.6.e.6.6.4.6.r.r.:.m & & % % 0 h g 6 * $ * > > > > g g j B 0 0 h h 0 > > * ; > 6 a g a s 6 ; # # < H 4.e.e.e.r.e.e.0.r.p.h.",
"0.p.d.d.d.d.d.d.s.s.s.<.C ; & @ > 6 7 0 7 6 > 7 g 7 g 6 g g j M t 6 0 g g 7 6 6 6 6 7 7 a 0 0 3 ; # # < P t.i.s.d.d.s.a.y.p.i.y.",
"I :.4.y.7.7.7.7.4.4.8.U v @ @ @ $ > > > 3 6 6 7 6 g g 6 $ * 6 g 6 % % 3 6 7 7 7 6 7 7 6 > 1 > * @ @ @ < A <.1.4.5.y.7.y.5.0.<.;.",
"F T 1.2.4.4.4.2.<.>.;.P b = - - q q q q y e e y y y u y e e e g e q e e e y y u u u y y q e q y w - - w Z -.-.:.1.1.4.2.2.1.>.Y ",
"F U >.>.;.>.>.;.Y U I K Z m Z F F A A Z Z C C Z Z A A A C Z Z S C Z A Z Z Z Z A A C m C Z Z A A Z m Z m D U U U -.-.-.-.>.>.-.U ",
"F I U I P I I I I I P K G I ;.1.2.>.;.;.Y I I I ;.>.<.,.;.;.;.R ;.;.;.;.;.R ;.;.-.U I I Y -.;.;.-.Y U J H I I I I I P P U Y U I ",
"D G I U Y >.:.;.;.;.;.;.;.>.2.5.7.6.4.4.2.-.U >.2.5.7.7.6.6.6.5.4.4.7.6.7.i.6.6.4.,.U U >.4.5.4.2.<.:.-.Y U -.Y -.-.-.-.-.-.Y I ",
"D I >.2.y.p.p.i.i.7.5.6.i.i.a.d.d.s.s.i.5.>.>.4.y.d.j.l.h.l.h.f.s.g.h.v.h.h.l.g.p.0.:.-.1.y.s.s.a.y.a.y.0.8.8.2.2.2.2.2.1.<.-.-.",
"G Y 0.s.j.l.j.l.l.j.f.h.x.l.l.j.z.h.j.g.7.2.1.6.a.h.x.x.l.z.v.v.h.v.v.b.v.v.v.v.l.d.2.1.r.f.j.j.j.l.x.j.j.h.g.g.s.s.d.s.y.y.2.-.",
"I >.e.d.h.j.h.h.k.j.h.h.k.j.j.h.h.h.h.g.y.2.2.4.y.a.d.d.d.g.h.h.h.h.h.h.h.z.v.h.k.g.e.4.y.s.d.d.g.l.z.l.z.l.l.l.j.g.g.g.d.a.y.1.",
"U :.0.t.u.p.p.p.p.p.p.p.p.p.p.p.i.p.p.i.5.2.2.2.2.4.4.4.3.p.s.p.p.p.p.p.p.p.p.p.u.u.4.1.4.4.4.4.e.p.p.p.p.p.u.u.u.u.p.u.u.u.r.1."
};
