/* XPM */
static char *e4f7d71b67544bf5e079e6075fe238d5DEw8rvdpi2Ifk4sB[] = {
/* columns rows colors chars-per-pixel */
"26 26 140 2 ",
"   c #211F30",
".  c #2F262D",
"X  c #36292B",
"o  c #2F2332",
"O  c #372335",
"+  c #372B32",
"@  c #342D37",
"#  c #502F22",
"$  c #4B3426",
"%  c #443028",
"&  c #4C322B",
"*  c #4E362D",
"=  c #553422",
"-  c #523724",
";  c #583622",
":  c #5B3921",
">  c #593B23",
",  c #5D3B21",
"<  c #422637",
"1  c #452837",
"2  c #482A37",
"3  c #4C2C37",
"4  c #582A3C",
"5  c #4D3734",
"6  c #4E333A",
"7  c #5B3E31",
"8  c #533639",
"9  c #553B39",
"0  c #54393C",
"q  c #603E21",
"w  c #632C3F",
"e  c #45413F",
"r  c #5E493E",
"t  c #634436",
"y  c #64493C",
"u  c #3A3847",
"i  c #4D3640",
"p  c #5B384C",
"a  c #783540",
"s  c #763A46",
"d  c #7E3A40",
"f  c #643A5F",
"g  c #324553",
"h  c #3F4F57",
"j  c #264E69",
"k  c #3A5D70",
"l  c #2E627A",
"z  c #5B4945",
"x  c #56414B",
"c  c #5E424C",
"v  c #5D4E49",
"b  c #67534A",
"n  c #60534E",
"m  c #7B5A45",
"M  c #7A564A",
"N  c #664151",
"B  c #625852",
"V  c #7F6050",
"C  c #685563",
"Z  c #7E5A68",
"A  c #796D6C",
"S  c #805336",
"D  c #87543A",
"F  c #A4683B",
"G  c #8A3746",
"H  c #8C3F4A",
"J  c #8A494C",
"K  c #974045",
"L  c #964549",
"P  c #9D4948",
"I  c #9B5150",
"U  c #9D5753",
"Y  c #9F5B58",
"T  c #A2524C",
"R  c #A95449",
"E  c #A75A4F",
"W  c #856951",
"Q  c #9C6752",
"!  c #957459",
"~  c #95765B",
"^  c #A77349",
"/  c #BD7F4B",
"(  c #AE6E5C",
")  c #B96E54",
"_  c #AA7D56",
"`  c #A17258",
"'  c #A3775A",
"]  c #BD7D5E",
"[  c #82476E",
"{  c #895C6A",
"}  c #885A6E",
"|  c #9F606F",
" . c #C07E5D",
".. c #D0813F",
"X. c #AC8864",
"o. c #BE8665",
"O. c #D38B4D",
"+. c #D5965A",
"@. c #E68D41",
"#. c #E9974F",
"$. c #EA9D55",
"%. c #C4996D",
"&. c #CF9E6E",
"*. c #D1A373",
"=. c #D4A877",
"-. c #DBAB75",
";. c #D6AC7C",
":. c #EEAC6A",
">. c #EFB270",
",. c #F1B777",
"<. c #F2BC7E",
"1. c #3D7C96",
"2. c #2A7DA1",
"3. c #4A7585",
"4. c #A7568E",
"5. c #986480",
"6. c #AD7784",
"7. c #B07290",
"8. c #C77BA0",
"9. c #EA71BD",
"0. c #539BB1",
"q. c #2FACDA",
"w. c #55ABC4",
"e. c #5BB0C6",
"r. c #43BBE2",
"t. c #58CAE9",
"y. c #6CD9F1",
"u. c #9A8791",
"i. c #979193",
"p. c #B08B96",
"a. c #B5B4BA",
"s. c #C880A0",
"d. c #F38EBF",
"f. c #F4C489",
"g. c #F5C88F",
"h. c #F8D3A0",
"j. c #FBDFB1",
"k. c #F89CC0",
"l. c #D6BBC1",
"z. c white",
/* pixels */
"q q q q q q q q q e h > - c - - x % t n 0 q q q q q ",
"q q q q q q q q $ 1.e.e p s.c g w.k 5 7.5.$ q t q q ",
"q q q q q q % X   r.y.k 4.k.7.2.t.y.f d.k.  X X q q ",
"q q q q q - } 7.  r.y.k 4.k.7.2.t.y.f d.k.o 0.3.= q ",
"q q q q q $ 7.k.9.j 2.    4.    2.    4.f q.y.0.$ q ",
"q q q q q q % [ 4.2 i B v o 2 6 0 z @ n B 2.l % q q ",
"q q q q q q % S   K Y ;.*.3 K E ) &.z =.;.  - q q q ",
"q q q q q - W O.  T H U o.3 K E ) ] z ( U   q q q q ",
"q q q q q $ X.$.  E 6.z.6.3 K E ) *.< l.z.  q q q q ",
"q q q q ; b <.$.  E | l.{ 3 K E ) ) + p.l.  q q q q ",
"q , , , # b <.$.  E H s C 3 K E ) ) u N J   q q q q ",
"q , , > q b <.$.  E U z Z 1 G P R R x x !   q q q q ",
"q q q q q y >.$.  E U z w 4 < 2 3 3 w 8 !   q q q q ",
"q q q q q $ _ #.  K I V i.a.u.u.a.a.a.{ '   q q q q ",
"q q q q q - S ..t d L ] M 0 0 0 0 0 0 ` Q X q q q q ",
"q q q q q q - 7 t D 2 6 0 0 0 0 0 0 0 0 * q q q q q ",
"q q q q q q q -   +.F F F F F F F F . $ > q q q q q ",
"q q q q q q q X <.<.<.<.<.<.<.<.<.<.X.$ q q q q q q ",
"q q q q q > r %.<.<.<.<.<.<.f.f.h.j.X.5 & ; > q q q ",
"q q q q q $ X.<.$.! <.<.<.<.<.<.f.g.X.F t ; = = q q ",
"q q q q q $ ^ $.t %.<.<.<.<.<.<.<.<.-.m + q , : q q ",
"q q q q q q X   @.<.<.b           <.<.b $ q q q q q ",
"q q q q q q q X @.<.-.r - q q X F :.+.7 - q q q q q ",
"q q q q q q q X @.,._ $ q q q % S F S - q q q q q q ",
"q q q q q q q X @./ 7 > q q q q - $ - q q q q q q q ",
"q q q q q q q - t 7 - q q q q q q q q q q q q q q q "
};
