/* XPM */
static char *_4f8d4fbe2d44d8cbbb2e0e929bd77faHg5kl4Tq87W6XdTy[] = {
/* columns rows colors chars-per-pixel */
"26 26 135 2 ",
"   c #1E211D",
".  c #20241F",
"X  c #232622",
"o  c #292725",
"O  c #252A24",
"+  c #2B2926",
"@  c #26292A",
"#  c #2B2D2A",
"$  c #312C29",
"%  c #2D322C",
"&  c #32342D",
"*  c #33392F",
"=  c #232B31",
"-  c #2A2F33",
";  c #2B3432",
":  c #2E3937",
">  c #333532",
",  c #343A33",
"<  c #393C37",
"1  c #3B3D3A",
"2  c #5F3E23",
"3  c #603E21",
"4  c #394137",
"5  c #364139",
"6  c #3C403B",
"7  c #5E4026",
"8  c #5B412C",
"9  c #42433F",
"0  c #4E433A",
"q  c #544334",
"w  c #514439",
"e  c #584839",
"r  c #283541",
"t  c #2A3C4D",
"y  c #2A3F51",
"u  c #2C4154",
"i  c #2C455B",
"p  c #2E485E",
"a  c #3C4B5A",
"s  c #2E4B63",
"d  c #2F4F68",
"f  c #304D64",
"g  c #304F68",
"h  c #325167",
"j  c #3E5162",
"k  c #31516C",
"l  c #335573",
"z  c #345876",
"x  c #355C7C",
"c  c #3B5D78",
"v  c #444542",
"b  c #4A4744",
"n  c #454945",
"m  c #4C4845",
"M  c #43474C",
"N  c #44494D",
"B  c #4C4E4B",
"V  c #524A42",
"C  c #4D504C",
"Z  c #424C55",
"A  c #484F54",
"S  c #424F59",
"D  c #4B5156",
"F  c #4A535B",
"G  c #545653",
"H  c #585651",
"J  c #575856",
"K  c #5C5D5A",
"L  c #415565",
"P  c #425A6B",
"I  c #555D61",
"U  c #486479",
"Y  c #4A687E",
"T  c #646664",
"R  c #676867",
"E  c #666C6C",
"W  c #6D6D6B",
"Q  c #70706F",
"!  c #6B7073",
"~  c #747472",
"^  c #797877",
"/  c #7A7B7B",
"(  c #7F807F",
")  c #365F81",
"_  c #376184",
"`  c #386284",
"'  c #39668A",
"]  c #3B698D",
"[  c #3C6D93",
"{  c #3E7097",
"}  c #3F739B",
"|  c #3E76A2",
" . c #3E75A0",
".. c #426C8C",
"X. c #407096",
"o. c #40749C",
"O. c #41759C",
"+. c #41759D",
"@. c #41759E",
"#. c #40759D",
"$. c #4177A1",
"%. c #4178A1",
"&. c #4078A2",
"*. c #437AA3",
"=. c #4179A5",
"-. c #427AA4",
";. c #437BA5",
":. c #427BA6",
">. c #437CA7",
",. c #437BA5",
"<. c #447EA9",
"1. c #457EA9",
"2. c #4580AB",
"3. c #4681AD",
"4. c #4A85AF",
"5. c #4A86B2",
"6. c #4D8AB6",
"7. c #4F8DB9",
"8. c #518EBA",
"9. c #5391BD",
"0. c #868686",
"q. c #838382",
"w. c #8B8B8B",
"e. c #8B8C8B",
"r. c #8D8D8C",
"t. c #939393",
"y. c gray58",
"u. c gray60",
"i. c #9D9C9C",
"p. c gray63",
"a. c #A7A7A7",
"s. c #AFAFAF",
"d. c #B2B2B2",
"f. c #B4B4B4",
"g. c #C3C3C3",
/* pixels */
"3 3 3 3 3 3 3 3 3 2 M P ) ' c Z b 3 3 3 3 3 3 3 3 3 ",
"3 3 3 3 3 3 3 2 a ..=.<.$.*.<.$.} j q 3 3 3 3 3 3 3 ",
"3 3 3 3 3 b L ] [ } [ ' ) z ) ] X.X.X.P m 3 3 3 3 3 ",
"3 3 3 3 M ' >.@.' l g s y y s k l ) o.>.[ A 3 3 3 3 ",
"3 3 2 M [ :.' k t - # o o + o o - r f ) $.| A 3 3 3 ",
"3 3 A x { ` s - + $ + # & # $ + $ + - y ) [ ) A 3 3 ",
"3 2 ' :.x u # + o 9 > X X   X ; b # o # t l o.} w 3 ",
"7 D ] } d @ + # J B X .         v K < o o u [ :.L H ",
"D X._ [ p # # * < #   X o   X   O > < + + y [ [ { ' ",
"w z x _ s # $ # o C #   .     O C % % % + t l ) _ j ",
"2 N l k i O % % @ 1 ^ B , O 1 W 9 % % > o t d l a 8 ",
"3 0 _ _ s @ # % G K 0.d.g./ f.w.T W > & X y x [ V 3 ",
"3 w [ } s # > < o W w.t.s.~ t.w.( > % & + u _ -.V 3 ",
"3 w [ [ p # & G @ J w.p.a.~ p.u.R X n % + t ` | V 7 ",
"3 0 ] [ s # & , % R b $ ~ J v < W 6 & & X u ` | e 3 ",
"3 0 [ [ s # % % # ~ ^ K q.I T / q.< % , + u ` | m 3 ",
"3 0 ] x s # & %   * B ! E a ^ C * . % % + u z { e 7 ",
"3 0 _ z d # + + O O O T ~ C W * . # O % + u z x h 8 ",
"e F X.{ ` # O %   % O G ( H K % O O O % . l } { [ Z ",
"Y +.@.*.] ; # #   O   5 C 4 9 O . . O % + z @.@.} U ",
"2._ [ [ x - % % % O O   * #   X # % # * $ h ] [ ' { ",
"7.[ { [ x # . 5 *     % 5 * *     * 5 % X h ] [ { 2.",
"] | <.} _ = O # = ; 5 % : % ; ; ; ; # @ X l O.>.| { ",
"l _ x x k p l k s s k d d d k k h s d d s k z x x x ",
"k { -.| } 2.5.2.{ { 5.7.7.5.9.8.2.` @.4.-.{ { { [ _ ",
"_ 5.8.9.6.9.6.8.| } 3.5.8.8.8.9.6.} 2.5.9.9.8.5.4.} "
};
