/* XPM */
static char *result[] = {
/* columns rows colors chars-per-pixel */
"32 32 136 2 ",
"   c #171915",
".  c #191B17",
"X  c #1C1E1A",
"o  c #1E221D",
"O  c #21241F",
"+  c #1F2220",
"@  c #232522",
"#  c #2A2724",
"$  c #252924",
"%  c #2B2A26",
"&  c #252728",
"*  c #26292A",
"=  c #2A2C2A",
"-  c #302A27",
";  c #322C29",
":  c #2D322B",
">  c #32342F",
",  c #31382F",
"<  c #252C31",
"1  c #282E32",
"2  c #2F3431",
"3  c #2F3831",
"4  c #26323C",
"5  c #2B3339",
"6  c #2C3B3F",
"7  c #333531",
"8  c #343C32",
"9  c #393C36",
"0  c #333E3D",
"q  c #3A3D38",
"w  c #374135",
"e  c #394236",
"r  c #3D433B",
"t  c #46403E",
"y  c #404A3D",
"u  c #273642",
"i  c #283744",
"p  c #273947",
"a  c #273A4A",
"s  c #293D4C",
"d  c #2A3F52",
"f  c #304248",
"g  c #2B4154",
"h  c #2B445A",
"j  c #2E4A63",
"k  c #2F4E69",
"l  c #304D66",
"z  c #304F6B",
"x  c #31516D",
"c  c #3E5E6C",
"v  c #325674",
"b  c #335877",
"n  c #345C7C",
"m  c #444644",
"M  c #464944",
"N  c #4B4E4B",
"B  c #4F504F",
"V  c #51534F",
"C  c #485054",
"Z  c #535451",
"A  c #585755",
"S  c #545853",
"D  c #5C5D5B",
"F  c #5E605D",
"G  c #60625F",
"H  c #4C5B64",
"J  c #41616F",
"K  c #426372",
"L  c #496C75",
"P  c #436C7F",
"I  c #4B727D",
"U  c #567C79",
"Y  c #597F7E",
"T  c #636463",
"R  c #676866",
"E  c #696967",
"W  c #6A6B6A",
"Q  c #706F6F",
"!  c #6F706F",
"~  c #747473",
"^  c #7C7C7C",
"/  c #5D837F",
"(  c #355F80",
")  c #376284",
"_  c #396486",
"`  c #376489",
"'  c #39668A",
"]  c #3A698E",
"[  c #3C6D93",
"{  c #3B6F98",
"}  c #3E7097",
"|  c #3D729B",
" . c #3E76A1",
".. c #466D80",
"X. c #477287",
"o. c #4E7783",
"O. c #517C89",
"+. c #42759C",
"@. c #6E7B85",
"#. c #757D83",
"$. c #4177A0",
"%. c #437AA4",
"&. c #447EA9",
"*. c #598282",
"=. c #5E8D8F",
"-. c #6E9882",
";. c #729984",
":. c #679A9E",
">. c #7BA78A",
",. c #77A494",
"<. c #4581AD",
"1. c #4A83AC",
"2. c #588EA1",
"3. c #4A86B2",
"4. c #4D8AB6",
"5. c #4E8DBA",
"6. c #508FBB",
"7. c #5090BD",
"8. c #6DA4AB",
"9. c #5594C0",
"0. c #5799C6",
"q. c #599AC6",
"w. c #5D9FCB",
"e. c #858584",
"r. c #8C8D8C",
"t. c #959594",
"y. c #9B9B9B",
"u. c #8DB992",
"i. c #A2A2A2",
"p. c #A9A9A9",
"a. c #B7B7B7",
"s. c #BBBBBB",
"d. c #93C596",
"f. c #97C897",
"g. c #9FCC98",
"h. c #CECECE",
/* pixels */
"f.d.d.d.d.d.d.d.d.d.d.d.d.d.f.f.d.d.d.d.d.d.d.d.d.d.d.d.d.d.d.d.",
"g.f.d.d.d.d.d.d.d.d.d.-.O.X.b n n *.U >.d.d.d.d.d.d.d.d.d.d.f.g.",
"g.g.f.d.d.d.d.d.d.U =.[ } <.] &.<. .[ ' Y d.f.f.d.d.d.d.d.f.g.g.",
"g.g.g.f.d.d.d.Y ..( &.&.%.+.' _ }  .%.<.[ ( *.u.d.d.d.d.f.g.g.g.",
"g.g.g.g.d.c ) | %.{ _ _ n b v x v n _ _ [ &.+.] K d.d.f.g.g.g.g.",
"g.g.g.g.c ' <. .[ n z x l h 4 4 g h z z b ] +.&.{ o.d.g.g.g.g.g.",
"g.g.g.K | &.| n z p 1 1 @ # # % $ @ 1 1 4 j n +.&.+.o.g.g.g.g.g.",
"g.g.K n | ] n g 1 % ; ; # % : % % % ; ; ; = a v ' | ( I g.g.g.g.",
"g./ } +.( v u % % @ % 9 : $ 3 @ $ : 7 > O # - 4 x n [ | o.g.g.g.",
"g.P %.%.b u % - @ q D m $ o o   . o q T t $ # - 4 x +.&._ g.g.g.",
":.b +.] k @ - @ q W N @ O o o o @ o . r T M @ % @ h _ 3._ O.8.g.",
"+._ ] ] j = - : 8 = = X + @ @ o @ @ o = = 9 = # & h _ %._ +.n g.",
"v n _ ) x = % 7 @ & D = o @ @ o o o @ F 2 @ 9 # = d v ( _ ) O.g.",
"/ b v v j @ @ w % & 9 D t o o o   7 T r % + w % @ h k v b v u.g.",
"g.x n x j + @ 8 $ B > ~ i.r.e.B e.y.^ 7 Z : r @ & d k n b g.g.g.",
"g.n [ _ j = % 9 @ C ~ ^ t.a.h.^ a.y.^ #.W @ q # & j b X.+.g.g.g.",
"g.n %.{ k = ; r 9 O V r.r.t.p.E r.r.r.! O : 8 - % h n $.| g.g.g.",
"g.n  .) h $ % y A X m r.y.p.p.E y.p.t.A o N e @ = d n  .] g.g.g.",
"g.v  .) j & ; r e % G A t V r.T W M Z R , 9 , % & h n  .] g.g.g.",
"g.n &.' z = % 8 $ 7 ^ ^ q t ~ V M q ^ e.m @ e % - j n  .` g.g.g.",
"g.v %.( z & ; 6 $ - V ~ ! / y.A #.~ #.G ; @ e = & h b  .] g.g.g.",
"g.n [ v j & ; 9 $ $ $ 7 B @.A 9 ^ A q @ O @ , % = d v _ ` g.g.g.",
"g.v n k j = # : O $ $ o M ~ ~ C ~ S o $ : O : # = j v n b L g.g.",
"g.+.&.$.+.1 O , $ @ $ $ : T ~ V W 9 $ $ $ o w # & _ %.%.%._ ;.g.",
"+.[ [ [ ( 1 @ , + o $ $ $ F ! M T : $ $ @ o : # # b ] +.] ] ,.g.",
"+.%.<.&.| 5 ; w + o o + o : e $ : $ o @ o . w ; = _ &.&.%.$.2.g.",
"n ) ] ( v * % 8 : w : + $ o w : o @ @ , w : w % % l ( ( ( b %.g.",
"| | [ | _ = O : w : o o : w e w w $ o @ , 8 > @ & n +.[ +.+.4.g.",
"&.<.<. .] * X @ $ : : 3 3 $ w $ : 3 3 : : = & X @ _ %.&.&.%.{ g.",
"] ] [ ( v a s d g a g f g f g a f a f g a d d p a x n _ ' ] ( g.",
"b ( n n n ( { | [ ( n { | { } [ { | { ) b ' [ _ n v n n n ( v g.",
" .5.5.5.3.5.9.5.5.{ { 4.0.0.0.9.w.0.0.3.] &.6.5.6.3.&.&.&.$.( f."
};
