/* XPM */
static char *dcdd841fae2e421fc946fa616fff883fS1gdbM5KNBVW4rJI[] = {
/* columns rows colors chars-per-pixel */
"26 26 11 1 ",
"  c #603E21",
". c #583622",
"X c #5B3921",
"o c #25131A",
"O c #5D3B21",
"+ c #502F22",
"@ c #533122",
"# c #C09344",
"$ c #FFF1CC",
"% c #FFD569",
"& c #553422",
/* pixels */
"                          ",
"                          ",
"                          ",
"                          ",
"                          ",
"                          ",
"                          ",
"                          ",
"                          ",
"    .X   oo               ",
" OOX+@O o#$o              ",
" OOX OOo#oo#oooooo        ",
"       o#o ######o        ",
"       o#o $oo%$$o        ",
"       o%o %o %o$o        ",
"        o%%o  o %o        ",
"         oo     o         ",
"                          ",
"             O...++++.X   ",
"             @...    .&&  ",
"             X        OX  ",
"                          ",
"                          ",
"                          ",
"                          ",
"                          "
};
