/* XPM */
static char *_9a29251b4714549bf992c40fca269431kk4YAP0IaLXn4nK[] = {
/* columns rows colors chars-per-pixel */
"26 26 134 2 ",
"   c None",
".  c #15120F",
"X  c #151210",
"o  c #191714",
"O  c #1C1916",
"+  c #1A1B1A",
"@  c #221F1C",
"#  c #1F211E",
"$  c #23211E",
"%  c #28231F",
"&  c #1E2021",
"*  c #242522",
"=  c #292522",
"-  c #272A27",
";  c #2C2826",
":  c #242729",
">  c #27292B",
",  c #2C2C2B",
"<  c #302A27",
"1  c #302C29",
"2  c #2E312D",
"3  c #31332F",
"4  c #252C32",
"5  c #2A2E32",
"6  c #2C3135",
"7  c #343432",
"8  c #3B3734",
"9  c #363934",
"0  c #3A3A36",
"q  c #3B3C3A",
"w  c #293845",
"e  c #2A3C4C",
"r  c #3D3F40",
"t  c #2B4255",
"y  c #2C455B",
"u  c #2E4A63",
"i  c #2F4E69",
"p  c #304E69",
"a  c #30516D",
"s  c #325573",
"d  c #345874",
"f  c #355C7B",
"g  c #365F80",
"h  c #376184",
"j  c #386183",
"k  c #386181",
"l  c #386285",
"z  c #386386",
"x  c #396486",
"c  c #386487",
"v  c #386285",
"b  c #376488",
"n  c #386589",
"m  c #38668A",
"M  c #3A678A",
"N  c #3A678B",
"B  c #38678C",
"V  c #39678C",
"C  c #39668A",
"Z  c #3B688B",
"A  c #3A688C",
"S  c #39698F",
"D  c #3A698E",
"F  c #3A6A8F",
"G  c #3C6A8F",
"H  c #3B6A8F",
"J  c #396A90",
"K  c #3A6A90",
"L  c #3C6B90",
"P  c #3B6C92",
"I  c #3A6C93",
"U  c #3B6C93",
"Y  c #3C6C92",
"T  c #3C6D93",
"R  c #3E6E93",
"E  c #3F6E93",
"W  c #3B6D94",
"Q  c #3B6D95",
"!  c #3C6D94",
"~  c #3D6E94",
"^  c #3E6E94",
"/  c #3E6F96",
"(  c #3C6D93",
")  c #3F7096",
"_  c #3F7097",
"`  c #3C7097",
"'  c #3D7199",
"]  c #3F7198",
"[  c #3E729A",
"{  c #3F729A",
"}  c #3E729B",
"|  c #3C729D",
" . c #3C739D",
".. c #3C739E",
"X. c #3E749C",
"o. c #3E759E",
"O. c #417197",
"+. c #407096",
"@. c #407198",
"#. c #407299",
"$. c #40739A",
"%. c #40739C",
"&. c #41759C",
"*. c #40749D",
"=. c #41759D",
"-. c #41759E",
";. c #40769E",
":. c #41779F",
">. c #41769F",
",. c #4177A0",
"<. c #4077A1",
"1. c #4377A0",
"2. c #4076A0",
"3. c #4278A1",
"4. c #4378A1",
"5. c #4178A2",
"6. c #4278A2",
"7. c #427AA4",
"8. c #437AA4",
"9. c #427AA5",
"0. c #417AA6",
"q. c #437CA7",
"w. c #447CA6",
"e. c #437AA4",
"r. c #437EA9",
"t. c #457FAA",
"y. c #447EA9",
"u. c #4681AD",
"i. c #4983AE",
"p. c #4A86B2",
"a. c #4D8AB6",
"s. c #4F8DB9",
"d. c #518EBA",
"f. c #5491BC",
/* pixels */
"                    a z f N g a                     ",
"                a } 6.t.o.w.r.6.-.s                 ",
"            g A K } P z g s z P -.O._ z             ",
"        a b 8.-.c s a u t e u a a g $.0.A s         ",
"      i ~ 8.A a e 4 > ; = ; : > 5 w p z 8.} s       ",
"    s f ~ z y 5 ; < = % @ @ @ % < ; 5 t k Y f f     ",
"    c 8.f t , = O O X X X X X X O O % , e d 6.P     ",
"  k N -.i > ; o X X X X X X X X X X X = : u } 1.f   ",
"g @.g @.u , % @ X X X X X . X X . . O ; , y Y A ` c ",
"  f g g u > @ + X X X X X X . . . o , 7 , t f g k f ",
"  p s s y : % 5 o X X X X . . . . O 0 7 ; t a s s   ",
"    g f u > 8 q @ X X X X . . . X + q 7 , t f P     ",
"    ~ %.u ; 8 q + X X X X . X X X $ q 9 , y b 8.    ",
"    K U u > 7 5 & X X X X X X X X $ q r , t B |     ",
"    K K u > 7 < o X X . X X X X X o * 0 , y N |     ",
"    ~ U p , < = X X X X X X . X X + 9 9 3 t b o.    ",
"    B f y , 7 9 X X X X X X X X X + 2 2 2 y f `     ",
"    k d a , ; 5 o X X X X X X X X o - 2 , y f f a   ",
"  N } _ c 5 * $ o X X X X X X X X o & 2 , f _ _ F   ",
"  1.-.-.Z 6 * + X X X X X X X X X X & 4 3 f :.:.&.  ",
"u.z Q Q f 5 * $ X X X X X X X . . X $ 3 2 a A Y n 4.",
"a.Q ` K f , * # X . X X . X X . . . # , - d Y Y Y p.",
"Z 0.0.2.z 4 + + + + + o o + + + + + + & : f -.0.8.D ",
"s f g f a u a a u u a i i i i i i y i i y a f f f d ",
"s P 8.8.:.u.i.i.Q _ a.s.s.a.s.d.7.b 0.u.8.) ` G F f ",
"k u.f.f.a.s.d.a.o.o.u.p.d.s.s.f.a. .u.p.f.f.a.a.p.` "
};
