/* XPM */
static char *_71fa153b38c4550d0c401ec8a7443fbp71UXf3AQZ4T8hc8[] = {
/* columns rows colors chars-per-pixel */
"26 26 7 1 ",
"  c #603E21",
". c #583622",
"X c #5B3921",
"o c #5D3B21",
"O c #502F22",
"+ c #533122",
"@ c #553422",
/* pixels */
"                          ",
"                          ",
"                          ",
"                          ",
"                          ",
"                          ",
"                          ",
"                          ",
"                          ",
"    .X                    ",
" ooXO+o                   ",
" ooX oo                   ",
"                          ",
"                          ",
"                          ",
"                          ",
"                          ",
"                          ",
"             o...OOOO.X   ",
"             +...    .@@  ",
"             X        oX  ",
"                          ",
"                          ",
"                          ",
"                          ",
"                          "
};
