/* XPM */
static char *_d4d10390cbe475485b8de3380257dedRzAPVF4VqDWALaCu[] = {
/* columns rows colors chars-per-pixel */
"32 32 16 1 ",
"  c #96C796",
". c #93C596",
"X c #97C897",
"o c #9FCC98",
"O c #211F30",
"+ c #ACF7FA",
"@ c #6CD9F1",
"# c #2FACDA",
"$ c #B96E54",
"% c #A14744",
"& c #CF9E6E",
"* c #E4C997",
"= c #FBDFB1",
"- c #F2BC7E",
"; c white",
": c #95C696",
/* pixels */
" ..............................X",
"o ............................Xo",
"oo ..........................Xoo",
"ooo ........................Xooo",
"oooo ......................Xoooo",
"ooooo ....................Xooooo",
"oooooo .....OOOOOOOOOOO..Xoooooo",
"ooooooo ..OO++@@@@@@@++OXooooooo",
"oooooooo O+@@@@@@@@@@@@+Oooooooo",
"ooooooooO+@@#OOOOOOOOOOOOooooooo",
"oooooooO+@@#O$%&&&&*&**&&Ooooooo",
"oooooooO+@#O$%&&&&&&*&**&&Oooooo",
"ooooooO@@@#O$%&&&&&&&*&**&Oooooo",
"ooooooOOOOOO$%&&&&&&&&*&**Oooooo",
"oooooO$&*&$O$%&&&&&&&&&*&*Oooooo",
"oooooOOOOOOO$%&&&&&&&&&&*&Oooooo",
"ooooooO####O$%&&&&&&&&&&&*Oooooo",
"ooooooO#@@#O$%$&&&%%%%%&&$Oooooo",
"ooooooOO@@@#O$%$$$$$$$$$$OOooooo",
"oooooO=-OO@@#OOOOOOOOOOOO--Ooooo",
"oooooO=-O@@@@###########OO-Ooooo",
"oooooO-O#@@@@@@@;;;;+@OO#O-Ooooo",
"ooooooO###@@@@@@@@@@@@@O##Oooooo",
"oooooooOOOOO@@@@@;;+@@@OOOoooooo",
"ooooooo:.O#@@@@@@@@@@@@O ooooooo",
"oooooo:..O#@@@@@@@+@@@@O. oooooo",
"ooooo:...O#@@@@O#@@@@@@O.. ooooo",
"oooo:.....O##@@OOOO#@@@#O.. oooo",
"ooo:.......O#@@O...OO@@@O... ooo",
"oo:.........OOO....O#@@@O.... oo",
"o:..................O#@@O..... o",
":....................OOO....... "
};
