/* XPM */
static char *_9363186c2b94e02a591890d7cb20a4d7ENYTxuHxWcJ9NFn[] = {
/* columns rows colors chars-per-pixel */
"26 26 37 1 ",
"  c #3D253B",
". c #3B2439",
"X c #372133",
"o c #372032",
"O c #392235",
"+ c #2A1721",
"@ c #28151E",
"# c #2F1B28",
"$ c #3C243A",
"% c #25131A",
"& c #2D1925",
"* c #331D2D",
"= c #3C253A",
"- c #3B2438",
"; c #3C2439",
": c #3A2336",
"> c #362030",
", c #3B2337",
"< c #301C29",
"1 c #351F2F",
"2 c #2B1722",
"3 c #392234",
"4 c #2C1824",
"5 c #3D253A",
"6 c #362032",
"7 c #291620",
"8 c #27151D",
"9 c #2F1A27",
"0 c #3B2338",
"q c #382133",
"w c #362031",
"e c #321D2B",
"r c #311D2A",
"t c #351F30",
"y c #382234",
"u c #3A2337",
"i c #372031",
/* pixels */
"                          ",
"                          ",
"                          ",
"                          ",
"    .XoooO      OoooX.    ",
"    X+@@@#$    $#@@@+X    ",
"    o@%%%&$    $&%%%@o    ",
"    o@%%%&$    $&%%%@o    ",
"    o@%%%&$    $&%%%@o    ",
"    O#&&&*=    =*&&&#O    ",
"     $$$$=      =$$$$     ",
"              -O;         ",
"              :>,         ",
"              :>,         ",
"              :>,         ",
"     $$$$=    :>:$$$$     ",
"    O#&&&*=   :><&&&#O    ",
"    o@%%%&$   :12%%%@o    ",
"    o@%%%&$   :12%%%@o    ",
"    o@%%%&$   ;34%%%@o    ",
" 5$$678889$    $#@@@+X    ",
" 0qqwerrrt5     OoooX.    ",
" -yyyyyyy:    ;,$         ",
"              ui,         ",
"              :>,         ",
"              :>,         "
};
