/* XPM */
static char *_73d3685734b4b6181fde79ed2cf57f2PknTU5VzWriJwkz5[] = {
/* columns rows colors chars-per-pixel */
"32 32 14 1 ",
"  c #96C796",
". c #93C596",
"X c #97C897",
"o c #9FCC98",
"O c #211F30",
"+ c #E44A4A",
"@ c #72A11D",
"# c #CC3048",
"$ c #9C1B4D",
"% c #28860F",
"& c #076029",
"* c white",
"= c #A4CC42",
"- c #95C696",
/* pixels */
" ..............................X",
"o ............................Xo",
"oo ..........................Xoo",
"ooo ........................Xooo",
"oooo OOO...OOOOOO...OOOO...Xoooo",
"ooooO+++O.O@@@@@@O.O@@@@O.Xooooo",
"ooooO###$OOOOOOOOOOOOOOOOXoooooo",
"oooooOO$O$#+++#+####+#+++Ooooooo",
"ooooO#$OOOO$$$#$####$#$$OOoooooo",
"ooooO+#O$$###############Ooooooo",
"ooooO+#OOOOOOOOOOOOOOOOOOOoooooo",
"ooooO+OO%%%%&****&%&****&%Oooooo",
"oooooOO%@@@@%&&&&%@%&&&&%@Oooooo",
"ooooooO@@@@@@@@@@@@@@@@@@@Oooooo",
"ooooooO@@@@@&&&&&&&&&&&&@@Oooooo",
"ooooooO@@@@%@@@@@@@@@@@@%@Oooooo",
"ooooooO@@@@@@@@@%%%%%@@@@@Oooooo",
"oooooooO%@@@@@@@@@@@@@@@%Ooooooo",
"ooooooooO%%@@@@@@@@@@@%%Oooooooo",
"oooooooooOO@@@@@@@@@@@OOoooooooo",
"ooooooooooO@@@=======@Oooooooooo",
"oooooooooO@@@=========@Ooooooooo",
"ooooooooO@@@@=========@OOooooooo",
"oooooooO%@@@@=========@O%Ooooooo",
"oooooooO%@%O@=========@O%Ooooooo",
"oooooo-O%%O@@@=======@@@OOoooooo",
"ooooo-..OO%@@@OOOOOOO@@@O. ooooo",
"oooo-....O%@@@O....O%@@%O.. oooo",
"ooo-.....O%@@O.....O%%%O.... ooo",
"oo-......O%@%O......OOO...... oo",
"o-.......O%%O................. o",
"-.........OO................... "
};
