/* XPM */
static char *_abff9ac4496465a9cbf6c294adf059b7GUj4fEOBRabfXou[] = {
/* columns rows colors chars-per-pixel */
"64 64 2 1 ",
"  c #93C596",
". c #9FCC98",
/* pixels */
"                                                                ",
".                                                              .",
"..                                                            ..",
"...                                                          ...",
"....                                                        ....",
".....                                                      .....",
"......                                                    ......",
".......                                                  .......",
"........                                                ........",
".........                                              .........",
"..........                                            ..........",
"...........                                          ...........",
"............                                        ............",
".............                                      .............",
"..............                                    ..............",
"...............                                  ...............",
"................                                ................",
".................                              .................",
"..................                            ..................",
"...................                          ...................",
"....................                        ....................",
".....................                      .....................",
"......................                    ......................",
".......................                  .......................",
"........................                ........................",
".........................              .........................",
"..........................            ..........................",
"...........................          ...........................",
"............................        ............................",
".............................      .............................",
"..............................    ..............................",
"...............................  ...............................",
"...............................  ...............................",
"..............................    ..............................",
".............................      .............................",
"............................        ............................",
"...........................          ...........................",
"..........................            ..........................",
".........................              .........................",
"........................                ........................",
".......................                  .......................",
"......................                    ......................",
".....................                      .....................",
"....................                        ....................",
"...................                          ...................",
"..................                            ..................",
".................                              .................",
"................                                ................",
"...............                                  ...............",
"..............                                    ..............",
".............                                      .............",
"............                                        ............",
"...........                                          ...........",
"..........                                            ..........",
".........                                              .........",
"........                                                ........",
".......                                                  .......",
"......                                                    ......",
".....                                                      .....",
"....                                                        ....",
"...                                                          ...",
"..                                                            ..",
".                                                              .",
"                                                                "
};
