/* XPM */
static char *_4a8a07b72bb4eb9876e1f2562dd61d1eefKTKpzUca76as0[] = {
/* columns rows colors chars-per-pixel */
"32 32 16 1 ",
"  c #96C796",
". c #93C596",
"X c #97C897",
"o c #9FCC98",
"O c #211F30",
"+ c #ACF7FA",
"@ c #6CD9F1",
"# c #2FACDA",
"$ c #B96E54",
"% c #A14744",
"& c #CF9E6E",
"* c #E4C997",
"= c white",
"- c #F2BC7E",
"; c #95C696",
": c #FBDFB1",
/* pixels */
" ..............................X",
"o ............................Xo",
"oo ..........................Xoo",
"ooo ........................Xooo",
"oooo .......OOOOOOOOOOO....Xoooo",
"ooooo ....OO++@@@@@@@++O..Xooooo",
"oooooo ..O+@@@@@@@@@@@@+OXoooooo",
"ooooooo O+@@#OOOOOOOOOOOOooooooo",
"oooooooO+@@#O$%&&&&*&**&&Ooooooo",
"oooooooO+@#O$%&&&&&&*&**&&Oooooo",
"ooooooO@@@#O$%&&&&&&&*&**&Oooooo",
"ooooooOOOOOO$%&&&&&&&&*&**Oooooo",
"oooooO$&*&$O$%&&&&&&&&&*&*Oooooo",
"oooooOOOOOOO$%&&&&&&&&&&*&Oooooo",
"ooooooO####O$%&&&&&&&&&&&*Oooooo",
"ooooooO#@@#O$%$&&&%%%%%&&$Oooooo",
"ooooooO#@@@#O$%$$$$$$$$$$Ooooooo",
"oooooooO#@@@#OOOOOOOOOOOOooooooo",
"ooooooooO##@@###########Oooooooo",
"oooooooooOO@@@@@====+@OOoooooooo",
"ooooooooooO@@@@@@@@@@@Oooooooooo",
"oooooooooO@@@@@@@==+@@@Ooooooooo",
"ooooooooO@@@@@@@@@@@@@@OOooooooo",
"oooooooO@@@#@@@@@@+@@@@O#Ooooooo",
"oooooooOOO#O@@@@@@@@@@@O-Ooooooo",
"oooooo;O:-O@@@@@@@@@@@@@OOoooooo",
"ooooo;..OO#@@@OOOOOOO@@@O. ooooo",
"oooo;....O#@@@O....O#@@#O.. oooo",
"ooo;.....O#@@O.....O###O.... ooo",
"oo;......O#@#O......OOO...... oo",
"o;.......O##O................. o",
";.........OO................... "
};
