/* XPM */
static char *a8527f60f97d4530a6bbb32b919428e2UbiUfREVWEjP2TrE[] = {
/* columns rows colors chars-per-pixel */
"64 64 256 2 ",
"   c black",
".  c #010101",
"X  c #020202",
"o  c gray1",
"O  c #040404",
"+  c gray2",
"@  c #060606",
"#  c #070707",
"$  c gray3",
"%  c #090909",
"&  c gray4",
"*  c #0B0B0B",
"=  c #0C0C0C",
"-  c gray5",
";  c #0E0E0E",
":  c gray6",
">  c #101010",
",  c #111111",
"<  c gray7",
"1  c #131313",
"2  c gray8",
"3  c #151515",
"4  c #161616",
"5  c gray9",
"6  c #181818",
"7  c #191919",
"8  c gray10",
"9  c #1B1B1B",
"0  c gray11",
"q  c #1D1D1D",
"w  c #1E1E1E",
"e  c gray12",
"r  c #202020",
"t  c gray13",
"y  c #222222",
"u  c #232323",
"i  c gray14",
"p  c #252525",
"a  c gray15",
"s  c #272727",
"d  c #282828",
"f  c gray16",
"g  c #2A2A2A",
"h  c gray17",
"j  c #2C2C2C",
"k  c #2D2D2D",
"l  c gray18",
"z  c #2F2F2F",
"x  c gray19",
"c  c #313131",
"v  c #323232",
"b  c gray20",
"n  c #343434",
"m  c #353535",
"M  c gray21",
"N  c #373737",
"B  c gray22",
"V  c #393939",
"C  c #3A3A3A",
"Z  c gray23",
"A  c #3C3C3C",
"S  c gray24",
"D  c #3E3E3E",
"F  c #3F3F3F",
"G  c gray25",
"H  c #414141",
"J  c gray26",
"K  c #434343",
"L  c #444444",
"P  c gray27",
"I  c #464646",
"U  c gray28",
"Y  c #484848",
"T  c #494949",
"R  c gray29",
"E  c #4B4B4B",
"W  c #4C4C4C",
"Q  c gray30",
"!  c #4E4E4E",
"~  c gray31",
"^  c #505050",
"/  c #515151",
"(  c gray32",
")  c #535353",
"_  c gray33",
"`  c #555555",
"'  c #565656",
"]  c gray34",
"[  c #585858",
"{  c gray35",
"}  c #5A5A5A",
"|  c #5B5B5B",
" . c gray36",
".. c #5D5D5D",
"X. c gray37",
"o. c #5F5F5F",
"O. c #606060",
"+. c gray38",
"@. c #626262",
"#. c gray39",
"$. c #646464",
"%. c #656565",
"&. c gray40",
"*. c #676767",
"=. c #686868",
"-. c DimGray",
";. c #6A6A6A",
":. c gray42",
">. c #6C6C6C",
",. c #6D6D6D",
"<. c gray43",
"1. c #6F6F6F",
"2. c gray44",
"3. c #717171",
"4. c #727272",
"5. c gray45",
"6. c #747474",
"7. c gray46",
"8. c #767676",
"9. c #777777",
"0. c gray47",
"q. c #797979",
"w. c gray48",
"e. c #7B7B7B",
"r. c #7C7C7C",
"t. c gray49",
"y. c #7E7E7E",
"u. c gray50",
"i. c #808080",
"p. c #818181",
"a. c gray51",
"s. c #838383",
"d. c #848484",
"f. c gray52",
"g. c #868686",
"h. c gray53",
"j. c #888888",
"k. c #898989",
"l. c gray54",
"z. c #8B8B8B",
"x. c gray55",
"c. c #8D8D8D",
"v. c #8E8E8E",
"b. c gray56",
"n. c #909090",
"m. c gray57",
"M. c #929292",
"N. c #939393",
"B. c gray58",
"V. c #959595",
"C. c gray59",
"Z. c #979797",
"A. c #989898",
"S. c gray60",
"D. c #9A9A9A",
"F. c #9B9B9B",
"G. c gray61",
"H. c #9D9D9D",
"J. c gray62",
"K. c #9F9F9F",
"L. c #A0A0A0",
"P. c gray63",
"I. c #A2A2A2",
"U. c gray64",
"Y. c #A4A4A4",
"T. c #A5A5A5",
"R. c gray65",
"E. c #A7A7A7",
"W. c gray66",
"Q. c #A9A9A9",
"!. c #AAAAAA",
"~. c gray67",
"^. c #ACACAC",
"/. c gray68",
"(. c #AEAEAE",
"). c #AFAFAF",
"_. c gray69",
"`. c #B1B1B1",
"'. c #B2B2B2",
"]. c gray70",
"[. c #B4B4B4",
"{. c gray71",
"}. c #B6B6B6",
"|. c #B7B7B7",
" X c gray72",
".X c #B9B9B9",
"XX c gray73",
"oX c #BBBBBB",
"OX c #BCBCBC",
"+X c gray74",
"@X c gray",
"#X c gray75",
"$X c #C0C0C0",
"%X c #C1C1C1",
"&X c gray76",
"*X c #C3C3C3",
"=X c gray77",
"-X c #C5C5C5",
";X c #C6C6C6",
":X c gray78",
">X c #C8C8C8",
",X c gray79",
"<X c #CACACA",
"1X c #CBCBCB",
"2X c gray80",
"3X c #CDCDCD",
"4X c #CECECE",
"5X c gray81",
"6X c #D0D0D0",
"7X c gray82",
"8X c #D2D2D2",
"9X c LightGray",
"0X c gray83",
"qX c #D5D5D5",
"wX c gray84",
"eX c #D7D7D7",
"rX c #D8D8D8",
"tX c gray85",
"yX c #DADADA",
"uX c gray86",
"iX c gainsboro",
"pX c #DDDDDD",
"aX c gray87",
"sX c #DFDFDF",
"dX c gray88",
"fX c #E1E1E1",
"gX c #E2E2E2",
"hX c gray89",
"jX c #E4E4E4",
"kX c gray90",
"lX c #E6E6E6",
"zX c #E7E7E7",
"xX c gray91",
"cX c #E9E9E9",
"vX c #EAEAEA",
"bX c gray92",
"nX c #ECECEC",
"mX c gray93",
"MX c #EEEEEE",
"NX c #EFEFEF",
"BX c gray94",
"VX c #F1F1F1",
"CX c gray95",
"ZX c #F3F3F3",
"AX c #F4F4F4",
"SX c gray96",
"DX c #F6F6F6",
"FX c gray97",
"GX c #F8F8F8",
"HX c #F9F9F9",
"JX c gray98",
"KX c #FBFBFB",
"LX c gray99",
"PX c #FDFDFD",
"IX c #FEFEFE",
"UX c white",
/* pixels */
"+ @ O $ & $ < s ; 1 3 2 9 4 4 < < 4 4 3 3 g x : 0 6 8 e 8 6 3 6 0 3 1 6 k 0 = 2 * : ; - = * * * & = # ; 6 $ % = + # # @ & + + # ",
"o + O $ $ # 2 f - * - : 6 2 1 > 2 7 6 1 : y c , 3 1 3 6 6 5 2 3 3 > - , l p 1 2 $ = = * = - ; ; : , & , 0 % o # + # # @ & + @ $ ",
"  o O % % & 6 j 1 > , < 3 , , ; : , > ; - u n 8 < - = $ $ % % > > , ; ; y 8 = > - < > ; ; : : ; = = & 3 r < & * % * % $ * # # $ ",
"* > 2 0 t i v G x x N Z A V F D G F G I ) <.7.@.] R J C V x u h k c v c n d e s h n m c z z k g p u p k v f a t 9 q 8 6 q 9 2 < ",
"% = - 3 7 8 y u 7 6 y f k c B S H G S K W Q L D F G P ^ =.( f i y p i i i t r u t p a t e t r q 5 3 6 q 8 4 5 4 1 3 1 1 0 w , = ",
"% # O & = $ - , - & : 1 3 8 7 7 0 8 5 5 6 ; > 9 q w 5 7 J F 7 6 9 y 7 2 6 w r w 0 8 5 1 < 3 4 < - & ; 2 < < 1 > ; : = - 7 w , = ",
"+ o X * , : , > 3 3 7 7 4 q w 5 4 9 w r t 9 8 9 3 w e > p Z r t u u q t e r w 8 w r w 7 7 q 0 5 2 > < 7 8 9 5 2 1 , - * 6 w 1 : ",
"o X @ = ; > 1 , 5 2 3 9 2 0 0 5 8 r e w y i t y e e t 5 z P 8 2 r 0 9 e 9 9 q 0 w r r w e t w 3 1 4 4 7 0 0 5 5 4 4 : & w e : ; ",
"O o @ & & * ; ; ; = , 5 * ; ; , 1 : = < 6 7 8 7 7 0 0 : p T i * 1 , ; < : ; , ; : > : - = = = = = 1 6 2 < 1 < - % ; * * 0 0 - = ",
"o X + & * = : < , 1 2 4 ; 2 2 8 w t i r 0 e t y u w r a A X.` Z N H H b N S P D S A C V B M n n v v h 0 7 2 8 e q p u u g s 4 1 ",
"= - 2 q u s k x s j z b b Z H W W Y ! ` ] { o.! S z z C G ~ { T H Q / E <.%. ._ ^ E R U I P J A V N B D Y g e g h x f p w 3 2 5 ",
"+ @ & < 4 8 y c 2 < 9 p t t i g f p f v b C [ x 2 0 9 q u s d t i d 9 u 3.Q g v v f f r q r t q e q 0 j Y s 7 8 3 q 9 e 6 1 < < ",
"@ O @ % % % 1 m , ; 3 0 7 7 t e p l z h p z ' j 3 d i e u p i i s s e i 6.T a x n j k a i a d a f d 0 3 m i i u 5 w 7 t 4 1 1 < ",
"o o @ * = - 3 z 1 3 9 w u f a s l b c b m m ) x t g t r y y g l i u h i ' H v x M v z z z k j h p d h t S d q r 7 q 6 e 5 6 1 ; ",
"X O # * = * > k > % 7 u i a t p h l h s a g P i = 7 2 , 7 0 s h i t 5 2 S Z j a a f h s i i i i p y w y T x 2 < 1 < < = : 2 : - ",
"O + # & = = , z e 7 e t e e 0 e w 0 q w 6 2 F C d 0 e t 4 8 t i w 7 q a Y K a f p a s a d g f u u a y a [ ' B g p f k a h e e i ",
"* - > 4 q t a G J I T T L D D L H D I Q T Q 4.t.r.%.=.&.{ o...*.w.t.l.w.2.3.%.,.<.2.;.=.*.#.{ E H E ( L ' ] R P A G F B E Z g k ",
"& % * > 3 7 8 0 q 0 e a f s x M z s h j f M Z M H S T L U 8.#.R ( ` o.J A ( { _ / / ! Q ~ ~ T F n m n p s t 7 q 4 8 3 : v g : > ",
"% $ $ & - : , < > - : 4 6 5 8 w 9 5 5 1 * , w r g s f q p 1._ z v z m g h Z J H Z n B V Z S A C V n j h h i 9 i i d e 1 c h ; : ",
"O o O $ - : > 1 2 7 q 8 4 3 4 6 q u i r 6 3 r u d d f g k =.T V G S V Z F U v m H J J J F C M M N M m N c j s d s l j p A B 1 > ",
"@ # % = : , < 5 5 6 9 6 7 0 8 8 r s s t w q t u i p h l j O.J v A S C B V ~ G A A D D G D n x b z g d j h l p i s g d u N c 2 1 ",
"+ @ # $ % * = : 1 ; 4 8 w 9 7 9 9 0 0 9 7 7 a a 4 - r r 0 / M q c p t p s h j f j z x x m n Z C m z c c z k c f g k h d I F t q ",
"- - : 5 e t r a N A ^ X.#.@.$.@.X. ...o.o...O.X.$.*.{ { *.B.m.l.g.8.O.Q ! <.i.t.:.O.#.+.$.8.b.g.w.1.e.r.w.5.4.3.=.o.( L ' ~ M v ",
"% & ; 7 u a a c L C F I I T ) ( _ { O.=.,.w.I.V.f.d.7.=.1.6.0.a.9.w.r.;.<.h.q.5.$.' X.&.] ~  .{ [ / ` _ <.p./ Y F m h w s p q w ",
"@ @ $ * - : : 5 x 9 , < 2 8 e 0 w t u a f k -.%.A A D h B C l N K D Z m ` $.d x Z Z G U D N B n N x k n Y *.i r 8 9 0 6 w q 9 9 ",
"X O $ * : 1 3 8 D s 0 w q t q 0 u d s f j t E } f x V V J I G P Q S v d O.u.n Z m M H L I E L G A C N M H :.a 9 5 r i a f s 9 4 ",
"@ @ # * ; : - 3 Z y 8 t q q w 0 i f a p j d Y ( x N C Y Y H U E L I C j <.b.a d l N H J G K C N V S Z x D *.h w 0 u r i p r q 9 ",
"O o X @ & & * 7 V 7 > 9 8 4 5 6 q y t y p 8 U Q a h g z b n j v N Z c e X.c.p y e p j z c V M c j u e 8 a R s y a f y w w q 3 < ",
"o $ % - 2 8 p V E h q t p y f l k f g j g h ;.c._ { |  .' Q Z T ^ A I C <.P.P B v n M A L K K J Z B V N R p.-.^ ~ Y P m c z k x ",
"& > > 4 w p x H W G Y ~ [ +.%.=.*.#.$.%.@.&.t.p.8.4.2.7.t.z.W.C.9.$.,.%.q.F.<.%.1.,.+.#.;.1.0.r.9.4.4.:.>.9.X.U I P P H Q ^ B M ",
"# & @ $ = > 7 w r q d k v Z B N A L T H C G c s S G A M x } Y.$.C B B g v A G J I P I L L K Y U I G B b F M y 7 i c l w x T s r ",
"# & @ % ; , 6 4 6 5 9 y y i u y d x v j g m b V F D A G M J m.F M V m v c k P H A n N C N c N Z n b M x Z m b N v v b d h D a r ",
"& = $ * : > 3 6 9 0 7 y e 0 r s k h d k M b l M v C D H x D n.V Z S C v a s D B L L Z S M l V J F H L D G C B Z l f j k s n s y ",
"O # @ = 1 1 5 < 1 0 5 q 7 7 7 w a a e q y a u g M S m b d N d.Z B Z C N m B M h b C N Z B m J T T E Y I m l m V n n s i 6 y w 6 ",
"@ # @ * : - ; > ; 0 8 8 7 9 w w p h s e q i p s x x v z l %.K.T j Z C C S C x v M B N Z C N G D A A D Z y q h n x j r i a v l f ",
"& & ; 4 q e t f h n C Z L J L R ` @.<.8.5.} { Q I R O.] _ b.T.2.[ =.-.o.t.>...X.o.;.<.*.X.{ O. ._ Y T ( @.| m b z s p d v H m l ",
"O + $ = , 4 9 g z y i y d i p h b Z L Q E J } L M N D C N N H E I R W B s.$.K K E ` Q L S D T U N j l A =.:.y r u t y r 0 0 8 7 ",
"# $ % * * = ; q f ; 4 4 8 9 i s s i u s a g ) D S G Z A V h N Z B D B d 4.#.C B B c j j l v V b j l j d / O.y i r r i i e 0 0 q ",
". X + = , , - 7 s * 7 w r u a g j h j c c b W c C J S D C V H G A Z C x -.X.G K J C M N V N C M n n l h ( X.u d i i s a t q 6 4 ",
"O o + * : = $ r d > 0 e w u u a d d g k k c I z N C x l M M c P J v v e #.Q B A A D Z G I H D M v c z k R ) p i t u a i q 7 3 2 ",
"@ + @ # % * - e 0 & , 1 > 7 0 q q q w q 7 0 Z i t u w q d k v N n x i 9 [ A t h v M n b M v k u q r i 8 l G u w q q 0 4 , < 4 4 ",
"# & ; 3 0 u z J H V V V Z K P L ! ) T I ~ -.j.q.1.<.:.-.+.2.v.h.h.M.g.f.J.7.R [ | | _ K D T { { ' ( T Y =.y.@.` ^ S b b c V c k ",
"@ $ & 1 6 0 g V S D S F L L B S ) #.X.O.-.7.p.9.3.1.3.w.>.&.c.u.=.+.$.6.r.*.{ 4.:. .! I L ' ,.7.1.#.! J ^ { T H D l f v c S c j ",
"$ $ + * ; ; 3 4 2 3 9 r r q 9 r a h x x l n N M M z z n k q @.! l s d b v h f n u g B B B V Z A C B v p r p g g f f s i p c r 8 ",
"@ @ o & : ; < 5 2 5 w t w q d f p s x b z x c m V b l j h r &.P a j k h h x m V m S A N V S Z B b x x c l h k j d j d e a n 7 > ",
"O @ o $ : ; : > > 4 9 8 7 0 u u d x n M M m B V Z G G B z t I h e j b l j n D S Z G S N M m c x x k j v b j a d s h s e p k 6 < ",
"+ % O @ * % * = ; 3 8 5 7 w 9 9 y p e 8 e f f g a z V C v w f p t p p i l x z f k v n C N x l x j d d d a i i p p r 5 5 t z 5 : ",
"o & % % ; : 1 2 < 8 r q e p p a p i u a d e q a w 9 a g g s Z R b f i a z d k b Z V C G S D J D M n x g f s u y h d q u g S y 4 ",
"# = - : 2 7 r z v h k l z n D S Z G W ) W D W W m d f k M Z ! { J b x n b T  .K I P L J H H F Z V b c x c L b r g h s a p h t 0 ",
"X O @ $ * : 1 w h 7 4 5 7 8 8 9 w p h h s x ^ L s a a s g s f j g a g l d / o.f v z p p a s d h l f p a s S p , 6 6 5 3 2 2 < , ",
"  . O + @ $ $ = r 2 , 2 7 8 0 e i p t r y u n g r f r w y u i s h k k g d Q ` 0 y a a p w r d g g d u i g M w < 7 5 1 : - ; ; - ",
"X O # $ % & & - y 5 3 6 8 6 8 w e w t p p w v z y y q p y u r e p g g s j (  .i y a a i w w y i i t e w e m q & < < , ; ; ; - = ",
"o O + + + $ % * 7 : < 2 < , 6 e 9 7 r t q u A l 7 8 > , 2 8 w t y y y t u H Q y 0 r e 0 r e 0 w t 8 q 6 , M y + = > < < > : = * ",
". . o O + $ % & < * < , > 1 ; 3 5 3 4 3 > 6 P M 3 e u s j y w 8 2 3 5 6 p H / v d f d a d p w q u p s y t H B q q e w 6 1 : , < ",
"  O * , 2 5 7 y f i j p s N Z V F A l c A A ) ` ! [ O.&.$._ ! K j w w p M I ( S M b m n x k k g d v h p k x v h d f a t w 0 9 9 ",
". @ $ - < 1 4 q t y i t a x M v c b k l n g i f b M c j j l ) / g 9 8 7 u i u q 9 q r e 9 9 q q 0 0 , - 2 2 5 5 2 1 1 < < 3 9 6 ",
"X # o + % # $ % * - ; > 1 3 4 2 : 3 7 4 4 , > 2 5 2 2 3 5 1 V c 3 5 q w r 9 5 7 8 q e q 0 0 0 w t 0 , - , 5 7 5 < > > ; = ; 7 3 ",
". + o + & % * * * - > 1 1 < 3 1 : 2 4 1 2 < , 1 2 1 3 6 6 3 v u 3 8 9 e q 7 5 8 8 8 7 7 6 6 8 9 q 6 : * : 2 4 4 1 , > - % % < : ",
". O X O % % * & % * : < > ; : > ; 2 4 2 6 7 4 2 3 3 4 4 , , c y 5 9 4 6 5 5 6 4 1 , < , , < 1 3 2 > = = > 1 2 , - = ; = % & , ; ",
"o # o O # + @ # # % - : ; - , < ; < 3 3 6 3 > - : < > > = * g w > 2 < < > > ; * $ % * * * = = - * % % & = - * * % % * & $ $ = % ",
"X # O @ * & = ; : , 1 3 5 7 u t 7 6 5 3 7 6 4 < > < , , : 6 n x y q 7 4 3 4 3 2 5 6 4 4 4 3 2 1 1 < < < < , : ; = & = & $ & - & ",
". @ o O # @ % < 3 5 6 7 q t u y 9 0 q e u e u 0 , - : : : 7 e q 7 1 > < 4 0 8 3 4 5 3 3 2 < > ; : : - - = - ; * # + @ + + # & # ",
"X o o O + O O * ; $ * - * * = = * - : > < > 0 6 * = * * = ; * & = & $ # % 4 = @ + $ # # @ + + @ # + + + O $ + X . X o o o O O o ",
"+ + # # $ $ $ ; > $ = - & $ = = - - ; ; ; - 9 7 - , : - > > ; ; > : * $ % 6 = @ O $ $ # @ + @ $ & # $ $ $ = # o o O @ @ @ @ O O "
};
